<svg width="135" height="30" viewBox="0 0 135 30" fill="none" xmlns="http://www.w3.org/2000/svg">
<path d="M12.2852 7.13672V9.91016H6.71875V13.4551H10.9473V16.2188H6.71875V22H3.00781V7.13672H12.2852ZM22.3633 19.2266H17.1777L16.3965 22H12.5L17.6758 7.03906H21.9141L27.1289 22H23.1836L22.3633 19.2266ZM21.5918 16.6289L20.2148 11.9707L19.7266 10.0469L19.2285 11.9707L17.9102 16.6289H21.5918ZM41.1816 7.13672V22H37.4414L32.627 14.041L31.543 11.7852L32.002 15.5742V22H28.6328V7.13672H32.1094L37.1777 15.291L38.2129 17.459L37.8125 13.6797V7.13672H41.1816ZM51.3184 6.98047C52.015 6.98047 52.5944 7.01953 53.0566 7.09766C53.5189 7.17578 54.0169 7.2832 54.5508 7.41992C54.9154 7.51107 55.1335 7.56315 55.2051 7.57617L54.7168 10.7891C54.3717 10.5547 53.9616 10.3529 53.4863 10.1836C53.0176 10.0143 52.3958 9.92969 51.6211 9.92969C50.8529 9.92969 50.1628 10.1022 49.5508 10.4473C48.9388 10.7923 48.4538 11.3001 48.0957 11.9707C47.7441 12.6413 47.5684 13.4421 47.5684 14.373C47.5684 15.3626 47.7279 16.2253 48.0469 16.9609C48.3659 17.6966 48.8411 18.2695 49.4727 18.6797C50.1042 19.0833 50.8724 19.2852 51.7773 19.2852C52.1745 19.2852 52.5911 19.2363 53.0273 19.1387C53.4635 19.041 53.8574 18.9173 54.209 18.7676C54.5671 18.6178 54.8307 18.4714 55 18.3281L55.0098 21.375C54.4499 21.6094 53.89 21.7982 53.3301 21.9414C52.7767 22.0846 52.1191 22.1562 51.3574 22.1562C49.7428 22.1562 48.3626 21.8503 47.2168 21.2383C46.071 20.6198 45.1986 19.7441 44.5996 18.6113C44.0072 17.472 43.7109 16.1341 43.7109 14.5977C43.7109 12.9701 44.043 11.5866 44.707 10.4473C45.3711 9.30143 46.276 8.4388 47.4219 7.85938C48.5742 7.27344 49.873 6.98047 51.3184 6.98047ZM63.8086 16.7852V22H60.0098V16.7656L55.1172 7.13672H59.1895L61.3965 11.9414L62.0215 13.5918L62.5488 11.9414L64.7852 7.13672H68.7402L63.8086 16.7852ZM75.127 10.0078V7.13672H86.8164V10.0078H82.8516V22H79.1016V10.0078H75.127ZM88.0078 14.4902C88.0534 11.9707 88.7109 10.1055 89.9805 8.89453C91.25 7.68359 92.9785 7.04557 95.166 6.98047C96.5592 6.94141 97.7604 7.22786 98.7695 7.83984C99.7852 8.44531 100.557 9.32422 101.084 10.4766C101.611 11.6289 101.862 12.9863 101.836 14.5488C101.803 16.2871 101.488 17.7227 100.889 18.8555C100.29 19.9883 99.4629 20.8216 98.4082 21.3555C97.3535 21.8893 96.1133 22.1562 94.6875 22.1562C93.2812 22.1562 92.0703 21.8438 91.0547 21.2188C90.0391 20.5872 89.2708 19.6953 88.75 18.543C88.2292 17.3906 87.9818 16.0397 88.0078 14.4902ZM98.0078 14.4414C98.0078 13.0026 97.7637 11.8665 97.2754 11.0332C96.7871 10.1934 96.0612 9.77344 95.0977 9.77344C94.1081 9.77344 93.3171 10.151 92.7246 10.9062C92.1322 11.6615 91.8359 12.8919 91.8359 14.5977C91.8359 15.5547 91.9499 16.3978 92.1777 17.127C92.4121 17.8496 92.7604 18.416 93.2227 18.8262C93.6914 19.2298 94.2643 19.4316 94.9414 19.4316C95.931 19.4316 96.6895 19.0345 97.2168 18.2402C97.7441 17.4395 98.0078 16.1732 98.0078 14.4414ZM105.82 7.13672C105.977 7.13672 106.458 7.11719 107.266 7.07812C108.372 7.01302 109.248 6.98047 109.893 6.98047C112.36 6.98047 114.193 7.59896 115.391 8.83594C116.589 10.0729 117.188 11.86 117.188 14.1973C117.188 15.8704 116.891 17.3027 116.299 18.4941C115.713 19.6855 114.86 20.5938 113.74 21.2188C112.62 21.8438 111.276 22.1562 109.707 22.1562C109.069 22.1562 108.333 22.127 107.5 22.0684C107.357 22.0618 107.1 22.0488 106.729 22.0293C106.357 22.0098 106.035 22 105.762 22H104.453V7.13672H105.82ZM109.893 19.4121C110.967 19.4056 111.807 18.9987 112.412 18.1914C113.018 17.3841 113.32 16.1634 113.32 14.5293C113.32 13.3444 113.19 12.3971 112.93 11.6875C112.676 10.9714 112.285 10.457 111.758 10.1445C111.237 9.82552 110.563 9.66602 109.736 9.66602C109.502 9.66602 109.235 9.67904 108.936 9.70508C108.636 9.73112 108.389 9.76042 108.193 9.79297V19.2656C108.532 19.3633 109.098 19.4121 109.893 19.4121ZM118.926 14.4902C118.971 11.9707 119.629 10.1055 120.898 8.89453C122.168 7.68359 123.896 7.04557 126.084 6.98047C127.477 6.94141 128.678 7.22786 129.688 7.83984C130.703 8.44531 131.475 9.32422 132.002 10.4766C132.529 11.6289 132.78 12.9863 132.754 14.5488C132.721 16.2871 132.406 17.7227 131.807 18.8555C131.208 19.9883 130.381 20.8216 129.326 21.3555C128.271 21.8893 127.031 22.1562 125.605 22.1562C124.199 22.1562 122.988 21.8438 121.973 21.2188C120.957 20.5872 120.189 19.6953 119.668 18.543C119.147 17.3906 118.9 16.0397 118.926 14.4902ZM128.926 14.4414C128.926 13.0026 128.682 11.8665 128.193 11.0332C127.705 10.1934 126.979 9.77344 126.016 9.77344C125.026 9.77344 124.235 10.151 123.643 10.9062C123.05 11.6615 122.754 12.8919 122.754 14.5977C122.754 15.5547 122.868 16.3978 123.096 17.127C123.33 17.8496 123.678 18.416 124.141 18.8262C124.609 19.2298 125.182 19.4316 125.859 19.4316C126.849 19.4316 127.607 19.0345 128.135 18.2402C128.662 17.4395 128.926 16.1732 128.926 14.4414Z" fill="black"/>
</svg>
